<svg xmlns="http://www.w3.org/2000/svg"  width="680" height="220" viewBox="88 60 680 220"><path fill="#f9f9f9" d="M255.668 141.453h4.969q2.952 0 4.5-1.36 1.546-1.358 1.593-3.89a720 720 0 0 0 .282-19.918 707 707 0 0 0-.282-19.918q-.046-2.485-1.593-3.82-1.548-1.335-4.5-1.336h-4.969Zm-14.059 12.371V78.836h19.028q10.546 0 15.258 4.477c3.14 2.984 4.77 7.898 4.898 14.742q.135 6.511.187 12.37.042 5.86 0 11.72a1060 1060 0 0 1-.187 12.37c-.129 6.876-1.758 11.813-4.898 14.81q-4.712 4.5-15.258 4.5ZM288.008 153.824V78.836h32.433V91.21h-18.375v18.277h17.438v12.375h-17.438v19.59h18.375v12.371ZM326.25 153.824V78.836h22.59l6.187 28.402 1.22 34.215h2.437l1.125-34.215 6.28-28.402h22.497v74.988h-14.063v-23.058l2.72-39.555h-2.528l-3.938 40.492-5.812 22.121h-15.09l-5.719-22.12-4.031-40.493h-2.437l2.625 39.555v23.058ZM415.582 143.328q2.76 0 4.172-1.242 1.407-1.242 1.45-3.54.232-4.78.331-10.5a765 765 0 0 0 0-23.526 335 335 0 0 0-.332-10.497c-.027-1.5-.531-2.656-1.496-3.468q-1.46-1.22-4.125-1.22-2.672 0-4.148 1.22-1.477 1.218-1.57 3.468a565 565 0 0 0-.305 10.497 575 575 0 0 0-.118 11.765q0 6.048.118 11.762.118 5.718.304 10.5.094 2.296 1.57 3.539 1.478 1.242 4.149 1.242m0 11.434q-10.314 0-14.926-4.36c-3.082-2.902-4.695-7.73-4.851-14.48q-.1-4.594-.14-9.563-.053-4.963-.052-10.074 0-5.11.051-10.074.04-4.969.14-9.563c.157-6.718 1.77-11.523 4.852-14.414q4.612-4.33 14.926-4.332 10.355.001 14.856 4.332 4.5 4.337 4.828 14.414.187 4.688.28 9.653a533 533 0 0 1 0 20.082 437 437 0 0 1-.28 9.539q-.33 10.126-4.829 14.48-4.501 4.36-14.855 4.36M462.07 154.762q-10.589 0-15.066-4.36-4.476-4.354-4.711-14.48-.047-3.889-.094-8.996-.047-5.11-.047-10.617 0-5.509.047-10.641.047-5.128.094-9.113.14-8.579 4.805-13.618t14.972-5.039q10.124 0 14.672 4.336 4.546 4.337 4.828 14.414.047 1.548.047 3.352 0 1.8-.047 3.605c-.03 1.207-.066 2.32-.093 3.352h-14.063q.047-1.734.094-4.102c.031-1.574.047-3.156.047-4.73q0-2.367-.047-4.102-.047-2.25-1.477-3.468-1.43-1.22-3.96-1.22c-1.782 0-3.16.407-4.145 1.22q-1.477 1.218-1.57 3.468c-.13 3.282-.211 6.829-.258 10.637a950 950 0 0 0 0 23.317 390 390 0 0 0 .257 10.57q.094 2.296 1.57 3.539c.985.828 2.364 1.242 4.145 1.242q2.766 0 4.266-1.242t1.547-3.54q.047-1.686.07-4.054c.016-1.578.016-3.152 0-4.734q-.023-2.362-.07-4.051h14.062q.094 2.245.094 5.106 0 2.859-.094 5.109-.28 10.126-4.898 14.48-4.617 4.36-14.977 4.36M502.613 116.145h4.032q2.948 0 4.449-1.36t1.64-3.797c.094-1.531.157-3.129.188-4.804a134 134 0 0 0 0-5.016q-.047-2.504-.188-4.8-.14-2.485-1.64-3.821-1.501-1.335-4.45-1.336h-4.03Zm-14.062 37.68v-74.99h18.094q10.494 0 15.16 4.243 4.664 4.242 4.992 14.04.088 2.625.117 4.589a165 165 0 0 1 0 3.938 251 251 0 0 1-.117 4.593q-.187 6.094-2.04 9.985-1.851 3.89-5.741 5.953l8.812 27.648h-14.906l-7.125-25.308h-3.184v25.308ZM547.793 125.797h8.246l-1.687-16.59-1.125-17.996h-2.622l-1.128 17.996Zm-17.344 28.027 10.406-74.988h22.122l10.402 74.988h-14.434l-1.593-15.652H546.48l-1.593 15.652ZM586.926 153.824V91.211h-12.047V78.836h38.152V91.21h-12.047v62.613ZM617.34 153.824V78.836h32.433V91.21h-18.37v18.277h17.433v12.375h-17.434v19.59h18.371v12.371ZM674.098 154.762q-10.314 0-14.692-4.36c-2.926-2.902-4.523-7.73-4.804-14.48q-.048-1.5-.047-3.305 0-1.804.093-3.61.094-1.798.329-3.3h13.214a166 166 0 0 0-.234 6.746q-.046 3.328.234 6.094.235 2.296 1.664 3.539 1.43 1.242 4.243 1.242 2.765 0 4.054-1.242t1.57-3.54c.122-1.062.212-2.116.258-3.163a35 35 0 0 0 0-3.14 46 46 0 0 0-.257-3.165 7.84 7.84 0 0 0-1.22-3.562c-.687-1.059-1.78-1.782-3.28-2.157l-7.688-1.964q-4.876-1.266-7.73-3.633c-1.91-1.578-3.29-3.54-4.149-5.883q-1.29-3.516-1.43-8.203a164 164 0 0 1-.046-3.676q0-1.617.047-3.352.28-6.702 2.273-10.828t6.254-6.023q4.266-1.899 11.344-1.899 9.984 0 14.484 4.336 4.495 4.337 4.918 14.414.094 2.01.023 4.918a168 168 0 0 1-.21 5.391h-13.497a224 224 0 0 0 .188-6.465q.047-3.234-.094-6.469-.046-2.25-1.617-3.468-1.57-1.22-4.195-1.22-2.813 0-4.172 1.22-1.36 1.218-1.64 3.468a41 41 0 0 0-.282 4.825q0 2.443.281 4.828a7.5 7.5 0 0 0 1.313 3.422q1.078 1.546 3.468 2.109l6.657 1.594q5.245 1.266 8.27 3.726 3.022 2.462 4.359 6.09 1.335 3.639 1.523 8.461c.031.723.047 1.469.047 2.25q0 1.172-.047 2.344-.046 1.172-.094 2.25-.421 10.126-4.851 14.48-4.428 4.36-14.832 4.36M255.672 205.496h4.031q2.952 0 4.45-1.36 1.498-1.359 1.644-3.796.136-2.297.183-5.18.048-2.883 0-5.765a123 123 0 0 0-.183-5.176q-.146-2.485-1.645-3.82c-1-.891-2.48-1.337-4.449-1.337h-4.031Zm-14.063 36.18v-74.988h18.094q10.495 0 15.16 4.242t4.992 14.039q.141 3.932.141 7.308t-.14 7.313q-.329 9.75-4.993 14.015-4.666 4.261-15.16 4.262h-4.031v23.809ZM298.836 203.996h4.031q2.952 0 4.45-1.36 1.499-1.359 1.644-3.796.135-2.297.184-4.805a134 134 0 0 0 0-5.015 120 120 0 0 0-.184-4.801q-.146-2.485-1.645-3.82c-1-.891-2.48-1.337-4.449-1.337h-4.031Zm-14.063 37.68v-74.988h18.094q10.495 0 15.16 4.242t4.993 14.039c.062 1.75.097 3.277.117 4.59a165 165 0 0 1 0 3.937c-.02 1.313-.055 2.844-.117 4.594q-.187 6.093-2.04 9.984-1.851 3.89-5.742 5.953l8.813 27.649h-14.906l-7.125-25.309h-3.184v25.309ZM348.047 231.18q2.76 0 4.168-1.243 1.406-1.242 1.453-3.539.234-4.78.328-10.5.094-5.713.094-11.761t-.094-11.766a324 324 0 0 0-.328-10.496q-.047-2.25-1.5-3.469t-4.121-1.219q-2.67 0-4.152 1.22-1.471 1.218-1.567 3.468a532 532 0 0 0-.305 10.496 575 575 0 0 0-.117 11.766q0 6.048.117 11.761c.079 3.813.176 7.313.305 10.5q.095 2.297 1.567 3.54 1.48 1.242 4.152 1.242m0 11.433q-10.313 0-14.93-4.36-4.617-4.353-4.851-14.48-.096-4.594-.137-9.562-.051-4.964-.05-10.074-.001-5.11.05-10.078c.027-3.309.074-6.5.137-9.559q.234-10.078 4.851-14.414 4.617-4.331 14.93-4.332 10.354 0 14.855 4.332 4.5 4.335 4.828 14.414c.125 3.125.215 6.344.282 9.652a533 533 0 0 1 0 20.082 464 464 0 0 1-.282 9.54q-.328 10.126-4.828 14.48-4.501 4.36-14.855 4.36M393.738 242.613q-7.073 0-11.34-1.898-4.264-1.9-6.234-6.043-1.969-4.149-2.203-10.899a418 418 0 0 1-.211-8.976q-.07-5.035-.07-10.379t.07-10.313q.07-4.963.21-8.761.282-7.125 2.321-11.438 2.04-4.312 6.281-6.234 4.244-1.922 11.176-1.922 9.844 0 14.367 4.336c3.016 2.89 4.723 7.695 5.133 14.414.094 1.434.14 3.148.14 5.129 0 1.988-.046 3.71-.14 5.18h-14.062c.094-1.75.14-3.91.14-6.489s-.046-4.73-.14-6.445q-.141-2.25-1.547-3.469t-3.89-1.219c-1.813 0-3.192.407-4.145 1.22q-1.43 1.218-1.57 3.468-.282 4.923-.422 10.613a454 454 0 0 0-.141 11.649c0 3.968.043 7.847.14 11.648q.141 5.69.422 10.613.142 2.297 1.57 3.54c.954.828 2.333 1.242 4.145 1.242q2.672 0 4.29-1.243 1.616-1.242 1.804-3.539.094-1.078.117-2.835.024-1.758 0-3.516a40 40 0 0 0-.117-2.836h-5.156v-12.184h18.844q.228 4.267.187 9.348c-.035 3.39-.125 6.523-.281 9.398q-.469 10.127-5.04 14.48-4.57 4.36-14.648 4.36M433.484 203.996h4.028q2.952 0 4.453-1.36 1.5-1.359 1.64-3.796.141-2.297.188-4.805a134 134 0 0 0 0-5.015 113 113 0 0 0-.188-4.801q-.14-2.485-1.64-3.82-1.5-1.337-4.453-1.337h-4.028Zm-14.062 37.68v-74.988h18.09q10.5 0 15.164 4.242t4.992 14.039a165.38 165.38 0 0 1 0 13.121q-.188 6.093-2.04 9.984-1.85 3.89-5.741 5.953l8.812 27.649h-14.906l-7.125-25.309h-3.184v25.309ZM463.195 241.676v-74.988h32.434v12.375h-18.371v18.277h17.433v12.375h-17.433v19.59h18.37v12.37ZM519.016 242.613q-10.313 0-14.696-4.36-4.382-4.353-4.8-14.48-.05-1.5-.051-3.304c0-1.203.035-2.406.097-3.61.059-1.199.168-2.304.329-3.304h13.214a166 166 0 0 0-.234 6.75q-.046 3.328.234 6.093.235 2.297 1.664 3.54 1.43 1.242 4.243 1.242 2.765 0 4.054-1.243c.856-.828 1.383-2.007 1.57-3.539a49 49 0 0 0 .258-3.164 35 35 0 0 0 0-3.14 49 49 0 0 0-.257-3.164c-.13-1.313-.532-2.496-1.223-3.563q-1.027-1.593-3.277-2.156l-7.688-1.965q-4.875-1.266-7.734-3.633a13.55 13.55 0 0 1-4.145-5.883c-.863-2.343-1.336-5.078-1.43-8.203a145 145 0 0 1-.05-3.68q-.001-1.611.05-3.347c.188-4.469.942-8.078 2.274-10.828q1.987-4.125 6.254-6.024 4.266-1.898 11.344-1.898 9.979 0 14.48 4.336 4.5 4.335 4.922 14.414.093 2.01.023 4.918a168 168 0 0 1-.21 5.39h-13.497c.094-2.156.153-4.312.188-6.464.027-2.156 0-4.313-.094-6.469-.035-1.5-.57-2.656-1.617-3.469q-1.57-1.219-4.195-1.219-2.813 0-4.172 1.22-1.36 1.218-1.64 3.468a41 41 0 0 0-.282 4.824c0 1.63.094 3.235.281 4.828a7.5 7.5 0 0 0 1.313 3.422q1.078 1.547 3.468 2.11l6.657 1.593q5.245 1.266 8.27 3.727 3.022 2.461 4.359 6.09 1.335 3.639 1.523 8.46c.031.723.047 1.47.047 2.25q0 1.173-.047 2.344-.047 1.173-.094 2.25-.422 10.127-4.851 14.48-4.428 4.36-14.832 4.36M562.508 242.613q-10.313 0-14.696-4.36-4.38-4.353-4.8-14.48c-.035-1-.047-2.101-.047-3.304q0-1.804.094-3.61c.062-1.199.171-2.304.328-3.304h13.215a166 166 0 0 0-.235 6.75q-.047 3.328.235 6.093.234 2.297 1.664 3.54t4.242 1.242q2.766 0 4.054-1.243 1.29-1.242 1.57-3.539c.122-1.062.212-2.117.259-3.164a38 38 0 0 0 0-3.14 46 46 0 0 0-.258-3.164 7.84 7.84 0 0 0-1.219-3.563q-1.03-1.593-3.281-2.156l-7.688-1.965q-4.876-1.266-7.73-3.633c-1.91-1.578-3.29-3.539-4.153-5.883q-1.284-3.515-1.425-8.203a164 164 0 0 1-.047-3.68q0-1.611.047-3.347.28-6.703 2.273-10.828t6.254-6.024q4.266-1.898 11.344-1.898 9.984 0 14.484 4.336 4.495 4.335 4.918 14.414.094 2.01.024 4.918a168 168 0 0 1-.211 5.39h-13.496a224 224 0 0 0 .187-6.464q.047-3.235-.094-6.469-.046-2.25-1.617-3.469t-4.195-1.219q-2.813 0-4.172 1.22-1.36 1.218-1.64 3.468a41 41 0 0 0-.282 4.824c0 1.63.094 3.235.281 4.828a7.5 7.5 0 0 0 1.313 3.422q1.078 1.547 3.469 2.11l6.656 1.593q5.245 1.266 8.27 3.727 3.022 2.461 4.359 6.09 1.335 3.639 1.523 8.46c.031.723.047 1.47.047 2.25q0 1.173-.047 2.344-.046 1.173-.094 2.25-.42 10.127-4.851 14.48-4.428 4.36-14.832 4.36M586.926 166.688h14.058v74.988h-14.058ZM626.059 242.613q-10.308 0-14.692-4.36-4.383-4.353-4.804-14.48-.048-1.5-.047-3.304 0-1.804.093-3.61c.063-1.199.172-2.304.328-3.304h13.215c-.125 2.28-.199 4.53-.23 6.75a53 53 0 0 0 .23 6.093q.235 2.297 1.664 3.54 1.43 1.242 4.243 1.242 2.765 0 4.054-1.243 1.29-1.242 1.57-3.539.189-1.593.258-3.164a35 35 0 0 0 0-3.14 44 44 0 0 0-.257-3.164 7.84 7.84 0 0 0-1.22-3.563q-1.03-1.593-3.28-2.156l-7.684-1.965c-3.254-.844-5.828-2.055-7.734-3.633a13.56 13.56 0 0 1-4.149-5.883q-1.29-3.515-1.43-8.203a164 164 0 0 1-.046-3.68q0-1.611.047-3.347.28-6.703 2.273-10.828 1.992-4.125 6.258-6.024c2.84-1.265 6.625-1.898 11.34-1.898q9.984 0 14.484 4.336 4.5 4.335 4.922 14.414.088 2.01.02 4.918a157 157 0 0 1-.212 5.39h-13.496a224 224 0 0 0 .188-6.464q.047-3.235-.094-6.469-.047-2.25-1.617-3.469t-4.195-1.219q-2.813 0-4.172 1.22-1.36 1.218-1.637 3.468a40 40 0 0 0-.281 4.824c0 1.63.09 3.235.281 4.828q.23 1.875 1.309 3.422t3.468 2.11l6.657 1.593q5.25 1.266 8.273 3.727 3.024 2.461 4.36 6.09 1.336 3.639 1.519 8.46c.031.723.047 1.47.047 2.25q0 1.173-.047 2.344-.047 1.173-.094 2.25-.416 10.127-4.851 14.48-4.426 4.36-14.832 4.36M659.898 241.676v-62.613h-12.046v-12.375h38.152v12.375h-12.047v62.613ZM689.375 241.676v-74.988h32.434v12.375h-18.371v18.277h17.433v12.375h-17.433v19.59h18.37v12.37ZM745.195 242.613q-10.312 0-14.695-4.36-4.381-4.353-4.8-14.48c-.036-1-.048-2.101-.048-3.304q0-1.804.094-3.61c.063-1.199.172-2.304.328-3.304h13.215a166 166 0 0 0-.234 6.75q-.047 3.328.234 6.093.234 2.297 1.664 3.54t4.242 1.242q2.766 0 4.055-1.243 1.29-1.242 1.57-3.539c.121-1.062.211-2.117.258-3.164a38 38 0 0 0 0-3.14 46 46 0 0 0-.258-3.164 7.84 7.84 0 0 0-1.218-3.563q-1.032-1.593-3.282-2.156l-7.687-1.965q-4.876-1.266-7.73-3.633c-1.91-1.578-3.29-3.539-4.153-5.883q-1.284-3.515-1.426-8.203a164 164 0 0 1-.047-3.68q0-1.611.047-3.347.282-6.703 2.274-10.828 1.993-4.125 6.254-6.024 4.265-1.898 11.343-1.898 9.985 0 14.485 4.336 4.494 4.335 4.918 14.414.093 2.01.023 4.918a168 168 0 0 1-.21 5.39h-13.497a224 224 0 0 0 .188-6.464q.046-3.235-.094-6.469-.047-2.25-1.617-3.469t-4.196-1.219q-2.812 0-4.172 1.22-1.36 1.218-1.64 3.468a41 41 0 0 0-.281 4.824c0 1.63.093 3.235.28 4.828a7.5 7.5 0 0 0 1.313 3.422q1.079 1.547 3.47 2.11l6.655 1.593q5.245 1.266 8.27 3.727 3.023 2.461 4.36 6.09 1.335 3.639 1.523 8.46c.03.723.047 1.47.047 2.25q0 1.173-.047 2.344-.048 1.173-.094 2.25-.422 10.127-4.852 14.48c-2.953 2.907-7.894 4.36-14.832 4.36"/><path fill="#fd3968" d="M143.672 246.445c-39.578 0-44.676-7.851-44.676-36.172 0-19.511 2.156-29.503 15.871-33.789l67.403 59.965c-5.29 7.38-16.458 9.996-38.598 9.996m82.172-2.601-17.906-16.438q.585-6.78.585-14.988v-43.07h-21.16v39.738l-68.183-60.203c-8.621-7.613-10.973-12.852-10.973-23.797 0-19.035 6.465-23.32 36.246-23.32 28.61 0 34.684 4.757 34.684 26.175v5.711h21.156v-8.09c0-36.644-12.93-47.59-56.426-47.59s-57.41 10.946-57.41 45.688c0 17.61 2.746 27.602 12.54 38.309-16.849 7.379-21.747 22.61-21.747 50.449 0 43.543 11.559 57.82 65.637 57.82 31.742 0 48.789-4.992 57.605-17.843l13.172 12.246a32.35 32.35 0 0 0 22.035 8.664h548.703v-20.942H247.727c-8.102 0-15.91-3.039-21.883-8.52"/></svg>