<svg xmlns="http://www.w3.org/2000/svg" width="2353.6" height="459.248" viewBox="0 0 1765.2 344.436"><path fill="#f9f9f9" d="M97.844 205.785h7.226q4.291-.001 6.543-1.976c1.496-1.317 2.27-3.204 2.313-5.657a1013 1013 0 0 0 .41-28.96q0-7.226-.102-14.481-.1-7.261-.308-14.48c-.043-2.41-.817-4.262-2.313-5.555q-2.252-1.944-6.543-1.942h-7.226Zm-20.442 17.988v-109.03h27.668q15.33.002 22.18 6.507 6.848 6.51 7.121 21.434.204 9.468.274 17.988.063 8.521 0 17.035c-.047 5.684-.137 11.676-.274 17.992q-.274 14.992-7.121 21.535-6.85 6.54-22.18 6.54ZM144.863 223.773v-109.03h47.157v17.991h-26.711v26.575h25.347V177.3H165.31v28.484h26.71v17.988ZM200.473 223.773v-109.03h32.843l8.996 41.296 1.77 49.746h3.543l1.637-49.746 9.133-41.297h32.71v109.031H270.66v-33.527l3.953-57.512h-3.68l-5.726 58.875-8.45 32.164h-21.94l-8.313-32.164-5.863-58.875h-3.543l3.816 57.512v33.527ZM330.355 208.512q4.02 0 6.063-1.809 2.043-1.805 2.113-5.144.34-6.948.48-15.266a1102 1102 0 0 0 0-34.207 481 481 0 0 0-.48-15.266q-.07-3.27-2.18-5.043c-1.41-1.18-3.406-1.77-5.996-1.77q-3.886 0-6.03 1.77c-1.43 1.184-2.196 2.864-2.286 5.043q-.27 6.954-.441 15.266a838 838 0 0 0-.168 17.105q-.002 8.792.168 17.102.17 8.319.441 15.266c.09 2.226.856 3.941 2.285 5.144q2.146 1.81 6.031 1.809m0 16.625q-14.993.002-21.707-6.336-6.713-6.34-7.05-21.059c-.094-4.449-.16-9.086-.207-13.902a1640 1640 0 0 1 0-29.3q.067-7.225.207-13.903.338-14.649 7.05-20.953 6.714-6.306 21.707-6.305 15.062 0 21.602 6.305t7.02 20.953q.27 6.814.406 14.039a784 784 0 0 1 0 29.199c-.09 4.793-.227 9.418-.406 13.867q-.48 14.719-7.02 21.059-6.541 6.337-21.602 6.336M397.953 225.137q-15.399.002-21.91-6.336-6.506-6.34-6.848-21.059-.069-5.654-.136-13.082a1778 1778 0 0 1 0-30.902q.068-7.466.136-13.254.205-12.472 6.985-19.8c4.523-4.884 11.777-7.325 21.773-7.325q14.72 0 21.328 6.305 6.609 6.304 7.02 20.953.07 2.25.07 4.875c0 1.75-.023 3.496-.07 5.246s-.09 3.37-.137 4.87h-20.441q.066-2.52.136-5.96.066-3.445.067-6.883-.001-3.44-.067-5.965-.068-3.27-2.148-5.043-2.08-1.77-5.758-1.77-3.883 0-6.031 1.77-2.146 1.775-2.281 5.043-.276 7.16-.375 15.47c-.07 5.546-.102 11.198-.102 16.968s.031 11.414.102 16.933a575 575 0 0 0 .375 15.368c.09 2.226.851 3.945 2.28 5.144 1.434 1.207 3.442 1.809 6.032 1.809q4.019 0 6.203-1.809c1.453-1.2 2.203-2.918 2.246-5.144.047-1.633.078-3.598.106-5.895q.03-3.439 0-6.883a368 368 0 0 0-.106-5.894h20.446q.136 3.275.136 7.43t-.136 7.425q-.412 14.719-7.121 21.059-6.715 6.337-21.774 6.336M456.898 168.984h5.86q4.292.001 6.472-1.972 2.181-1.979 2.387-5.524.204-3.333.274-6.984.064-3.645 0-7.29-.07-3.643-.274-6.984-.206-3.615-2.387-5.554c-1.453-1.297-3.613-1.942-6.472-1.942h-5.86Zm-20.445 54.79V114.741h26.305q15.264 0 22.043 6.168 6.781 6.168 7.258 20.41.136 3.816.171 6.676c.024 1.91.024 3.816 0 5.727a296 296 0 0 1-.171 6.675q-.27 8.862-2.961 14.516c-1.797 3.774-4.578 6.656-8.352 8.656l12.813 40.203H471.89l-10.36-36.796h-4.633v36.796ZM522.586 183.023h11.996l-2.453-24.12-1.637-26.169h-3.816l-1.637 26.168Zm-25.215 40.75 15.133-109.03h32.164l15.125 109.03h-20.988l-2.317-22.757H520.68l-2.317 22.757ZM579.488 223.773v-91.039h-17.511v-17.992h55.468v17.992h-17.511v91.04ZM623.715 223.773v-109.03h47.156v17.991h-26.715v26.575h25.352V177.3h-25.352v28.484h26.715v17.988ZM706.238 225.137q-14.994.002-21.363-6.336-6.374-6.34-6.988-21.059a163 163 0 0 1-.067-4.804c0-1.747.043-3.497.137-5.247q.136-2.619.477-4.804h19.214c-.18 3.316-.293 6.59-.34 9.812q-.064 4.84.34 8.86c.23 2.226 1.036 3.945 2.422 5.144q2.08 1.81 6.168 1.809 4.02 0 5.895-1.809c1.25-1.2 2.008-2.918 2.281-5.144.18-1.543.305-3.079.375-4.598a52 52 0 0 0 0-4.566 66 66 0 0 0-.375-4.602q-.275-2.86-1.77-5.18c-1.003-1.543-2.59-2.586-4.773-3.133l-11.176-2.863c-4.722-1.226-8.472-2.984-11.242-5.281q-4.158-3.441-6.031-8.55-1.875-5.112-2.078-11.927-.07-2.998-.07-5.347c0-1.57.023-3.192.07-4.875q.404-9.743 3.304-15.742 2.894-5.996 9.098-8.754 6.199-2.761 16.492-2.762 14.515 0 21.055 6.305 6.543 6.304 7.156 20.953.136 2.934.031 7.156-.1 4.226-.304 7.836H714.55c.136-3.133.226-6.27.273-9.402q.066-4.704-.136-9.407-.072-3.27-2.352-5.043-2.285-1.77-6.098-1.77-4.09 0-6.066 1.77c-1.32 1.184-2.113 2.864-2.387 5.043a60 60 0 0 0-.406 7.02q-.002 3.544.406 7.02c.23 1.816.863 3.476 1.91 4.976 1.043 1.496 2.727 2.52 5.043 3.066l9.676 2.317c5.086 1.226 9.098 3.031 12.027 5.418q4.395 3.576 6.34 8.855 1.94 5.286 2.215 12.301.066 1.57.067 3.273-.001 1.703-.067 3.407a886 886 0 0 1-.14 3.27q-.611 14.718-7.051 21.058-6.438 6.337-21.567 6.336M930.031 171.168h5.86q4.294 0 6.472-1.977 2.18-1.974 2.387-5.52.205-3.34.273-7.53.065-4.191 0-8.383a171 171 0 0 0-.273-7.528q-.207-3.615-2.387-5.554-2.18-1.944-6.472-1.942h-5.86Zm-20.445 52.605v-109.03h26.305q15.262-.001 22.047 6.167 6.779 6.168 7.253 20.41.206 5.725.207 10.63c0 3.269-.07 6.816-.207 10.632q-.474 14.175-7.254 20.375-6.783 6.2-22.046 6.2h-5.86v34.616ZM994.156 168.984h5.86c2.859 0 5.02-.656 6.472-1.972q2.18-1.979 2.387-5.524.206-3.333.27-6.984.069-3.645 0-7.29-.065-3.643-.27-6.984-.207-3.615-2.387-5.554c-1.453-1.297-3.613-1.942-6.472-1.942h-5.86Zm-20.445 54.79V114.741h26.305q15.263 0 22.043 6.168 6.782 6.168 7.257 20.41.136 3.816.172 6.676c.02 1.91.02 3.816 0 5.727a296 296 0 0 1-.172 6.675c-.18 5.907-1.171 10.747-2.964 14.516-1.793 3.774-4.575 6.656-8.348 8.656l12.812 40.203h-21.671l-10.356-36.796h-4.633v36.796ZM1067.066 208.512q4.024 0 6.067-1.809 2.043-1.805 2.113-5.144.341-6.948.477-15.266.135-8.311.136-17.102 0-8.79-.136-17.105c-.09-5.543-.25-10.629-.477-15.266q-.07-3.27-2.18-5.043-2.115-1.77-6-1.77c-2.59 0-4.597.59-6.03 1.77q-2.146 1.775-2.282 5.043-.27 6.954-.441 15.266a838 838 0 0 0-.172 17.105q0 8.792.171 17.102.171 8.319.442 15.266.135 3.34 2.281 5.144 2.15 1.81 6.031 1.809m0 16.625q-14.988.002-21.703-6.336-6.715-6.34-7.054-21.059c-.09-4.449-.157-9.086-.204-13.902a1640 1640 0 0 1 0-29.3q.07-7.225.204-13.903.34-14.649 7.054-20.953 6.715-6.306 21.703-6.305 15.063 0 21.606 6.305 6.54 6.304 7.02 20.953.27 6.814.406 14.039a784 784 0 0 1 0 29.199c-.09 4.793-.227 9.418-.407 13.867q-.48 14.719-7.02 21.059-6.542 6.337-21.605 6.336M1134.871 225.137q-10.292.001-16.492-2.758t-9.063-8.793q-2.864-6.029-3.203-15.844a594 594 0 0 1-.304-13.047c-.07-4.882-.106-9.918-.106-15.093 0-5.18.035-10.176.106-14.997.066-4.812.168-9.062.304-12.742q.411-10.354 3.375-16.625t9.13-9.062q6.168-2.797 16.253-2.797 14.308 0 20.887 6.305 6.575 6.304 7.46 20.953.205 3.135.204 7.465c0 2.882-.067 5.394-.203 7.527h-20.442q.201-3.816.203-9.438-.002-5.62-.203-9.37-.204-3.269-2.25-5.044-2.046-1.77-5.656-1.77c-2.637 0-4.644.59-6.031 1.77-1.387 1.184-2.145 2.864-2.285 5.043-.27 4.774-.477 9.918-.61 15.438a684 684 0 0 0-.207 16.933q0 8.654.207 16.934c.133 5.52.34 10.664.61 15.434.14 2.226.898 3.945 2.285 5.144 1.387 1.207 3.394 1.809 6.031 1.809q3.885 0 6.234-1.809c1.567-1.2 2.442-2.918 2.625-5.144q.133-1.565.172-4.121.03-2.557 0-5.114-.039-2.553-.172-4.12h-7.496v-17.72h27.395q.339 6.204.27 13.598c-.044 4.93-.18 9.48-.407 13.66q-.684 14.719-7.328 21.059c-4.426 4.226-11.527 6.336-21.293 6.336M1194.02 168.984h5.863c2.86 0 5.02-.656 6.472-1.972q2.179-1.979 2.387-5.524.206-3.333.27-6.984.07-3.645 0-7.29-.064-3.643-.27-6.984c-.14-2.41-.933-4.261-2.387-5.554-1.453-1.297-3.613-1.942-6.472-1.942h-5.863Zm-20.442 54.79V114.741h26.305q15.263 0 22.043 6.168 6.778 6.168 7.258 20.41.136 3.816.171 6.676c.02 1.91.02 3.816 0 5.727a296 296 0 0 1-.171 6.675q-.276 8.862-2.965 14.516c-1.797 3.774-4.578 6.656-8.348 8.656l12.813 40.203h-21.672l-10.356-36.796h-4.636v36.796ZM1238.586 223.773v-109.03h47.156v17.991h-26.71v26.575h25.347V177.3h-25.348v28.484h26.711v17.988ZM1321.11 225.137q-14.994.002-21.368-6.336-6.369-6.34-6.984-21.059a163 163 0 0 1-.067-4.804q.001-2.621.137-5.247.136-2.619.477-4.804h19.215c-.18 3.316-.293 6.59-.34 9.812q-.065 4.84.34 8.86c.23 2.226 1.035 3.945 2.421 5.144q2.08 1.81 6.168 1.809 4.02 0 5.895-1.809c1.25-1.2 2.008-2.918 2.281-5.144.18-1.543.305-3.079.375-4.598a52 52 0 0 0 0-4.566 66 66 0 0 0-.375-4.602q-.274-2.86-1.77-5.18c-1.003-1.543-2.59-2.586-4.773-3.133l-11.176-2.863q-7.085-1.837-11.242-5.281-4.158-3.441-6.031-8.55-1.874-5.112-2.078-11.927-.069-2.998-.067-5.347c0-1.57.02-3.192.067-4.875.273-6.496 1.37-11.742 3.305-15.742q2.893-5.996 9.097-8.754 6.2-2.761 16.492-2.762 14.515 0 21.055 6.305 6.543 6.304 7.156 20.953.136 2.934.032 7.156-.1 4.226-.305 7.836h-19.625c.137-3.133.226-6.27.273-9.402q.066-4.704-.136-9.407-.071-3.27-2.352-5.043-2.284-1.77-6.098-1.77-4.09 0-6.066 1.77-1.979 1.775-2.383 5.043a59 59 0 0 0-.41 7.02c0 2.363.133 4.703.41 7.02q.339 2.725 1.906 4.976 1.57 2.245 5.043 3.066l9.676 2.317c5.086 1.226 9.098 3.031 12.027 5.418q4.395 3.576 6.34 8.855 1.94 5.286 2.215 12.301.066 1.57.067 3.273-.001 1.703-.067 3.407a886 886 0 0 1-.14 3.27q-.611 14.718-7.051 21.058-6.438 6.337-21.567 6.336M1385.71 225.137q-14.993.002-21.362-6.336-6.374-6.34-6.989-21.059a163 163 0 0 1-.066-4.804q-.002-2.621.137-5.247.136-2.619.476-4.804h19.215c-.18 3.316-.293 6.59-.34 9.812q-.065 4.84.34 8.86c.23 2.226 1.035 3.945 2.422 5.144q2.079 1.81 6.168 1.809 4.02 0 5.894-1.809c1.25-1.2 2.008-2.918 2.282-5.144.18-1.543.304-3.079.375-4.598a52 52 0 0 0 0-4.566 66 66 0 0 0-.375-4.602q-.276-2.86-1.77-5.18c-1.004-1.543-2.59-2.586-4.773-3.133l-11.176-2.863q-7.086-1.837-11.242-5.281c-2.774-2.293-4.781-5.145-6.031-8.55q-1.874-5.112-2.079-11.927-.07-2.998-.07-5.347c0-1.57.024-3.192.07-4.875.274-6.496 1.371-11.742 3.305-15.742q2.894-5.996 9.098-8.754 6.198-2.761 16.492-2.762 14.514 0 21.055 6.305 6.543 6.304 7.156 20.953.135 2.934.031 7.156-.1 4.226-.305 7.836h-19.625c.137-3.133.227-6.27.274-9.402q.066-4.704-.137-9.407-.072-3.27-2.351-5.043-2.285-1.77-6.098-1.77-4.091 0-6.066 1.77-1.98 1.775-2.383 5.043a59 59 0 0 0-.41 7.02c0 2.363.132 4.703.41 7.02q.338 2.725 1.906 4.976c1.043 1.496 2.727 2.52 5.043 3.066l9.676 2.317q7.63 1.838 12.027 5.418 4.395 3.576 6.34 8.855 1.94 5.286 2.215 12.301.065 1.57.066 3.273 0 1.703-.066 3.407a886 886 0 0 1-.14 3.27q-.611 14.718-7.052 21.058-6.438 6.337-21.566 6.336M1423.395 114.742h20.445v109.031h-20.445ZM1481.66 225.137q-14.993.002-21.367-6.336-6.369-6.34-6.984-21.059a151 151 0 0 1-.067-4.804q-.002-2.621.137-5.247.133-2.619.476-4.804h19.215a248 248 0 0 0-.34 9.812c-.043 3.227.067 6.18.34 8.86.23 2.226 1.035 3.945 2.422 5.144 1.383 1.207 3.442 1.809 6.168 1.809 2.676 0 4.645-.602 5.895-1.809 1.246-1.2 2.007-2.918 2.28-5.144.18-1.543.306-3.079.376-4.598a52 52 0 0 0 0-4.566 66 66 0 0 0-.375-4.602q-.276-2.86-1.77-5.18-1.505-2.314-4.773-3.133l-11.176-2.863q-7.085-1.837-11.242-5.281-4.158-3.441-6.031-8.55-1.874-5.112-2.078-11.927-.07-2.998-.07-5.347c0-1.57.023-3.192.07-4.875.273-6.496 1.37-11.742 3.304-15.742q2.894-5.996 9.098-8.754 6.198-2.761 16.492-2.762 14.514 0 21.055 6.305 6.543 6.304 7.156 20.953.136 2.934.031 7.156-.1 4.226-.304 7.836h-19.625c.136-3.133.226-6.27.273-9.402q.066-4.704-.137-9.407-.07-3.27-2.351-5.043-2.285-1.77-6.098-1.77-4.09 0-6.066 1.77-1.979 1.775-2.387 5.043-.41 3.48-.41 7.02 0 3.544.41 7.02c.23 1.816.863 3.476 1.91 4.976 1.043 1.496 2.727 2.52 5.043 3.066l9.676 2.317c5.086 1.226 9.098 3.031 12.027 5.418q4.395 3.576 6.34 8.855 1.94 5.286 2.215 12.301.065 1.57.066 3.273 0 1.703-.066 3.407a886 886 0 0 1-.14 3.27q-.611 14.718-7.051 21.058-6.438 6.337-21.567 6.336M1532.223 223.773v-91.039h-17.516v-17.992h55.473v17.992h-17.516v91.04ZM1576.445 223.773v-109.03h47.157v17.991h-26.711v26.575h25.347V177.3h-25.347v28.484h26.71v17.988ZM1658.969 225.137q-14.994.002-21.364-6.336c-4.25-4.227-6.574-11.246-6.984-21.059q-.07-2.18-.07-4.804.001-2.621.137-5.247.136-2.619.476-4.804h19.219a234 234 0 0 0-.34 9.812q-.07 4.84.34 8.86c.226 2.226 1.035 3.945 2.418 5.144q2.079 1.81 6.168 1.809 4.02 0 5.894-1.809c1.25-1.2 2.012-2.918 2.282-5.144.183-1.543.308-3.079.375-4.598.07-1.524.07-3.043 0-4.566a62 62 0 0 0-.375-4.602q-.27-2.86-1.77-5.18-1.5-2.314-4.773-3.133l-11.176-2.863q-7.083-1.837-11.242-5.281-4.156-3.441-6.032-8.55-1.87-5.112-2.078-11.927c-.047-2-.066-3.78-.066-5.347 0-1.57.02-3.192.066-4.875q.41-9.743 3.305-15.742 2.9-5.996 9.098-8.754 6.203-2.761 16.492-2.762 14.514 0 21.058 6.305 6.541 6.304 7.153 20.953.14 2.934.035 7.156-.1 4.226-.305 7.836h-19.625c.133-3.133.227-6.27.27-9.402.043-3.137 0-6.27-.137-9.407q-.07-3.27-2.348-5.043-2.285-1.77-6.101-1.77-4.091 0-6.067 1.77-1.973 1.775-2.382 5.043-.41 3.48-.41 7.02 0 3.544.41 7.02a11 11 0 0 0 1.906 4.976q1.569 2.245 5.043 3.066l9.676 2.317q7.636 1.838 12.03 5.418 4.393 3.576 6.337 8.855 1.94 5.286 2.215 12.301c.043 1.047.07 2.137.07 3.273s-.027 2.27-.07 3.407l-.137 3.27c-.41 9.812-2.758 16.831-7.055 21.058q-6.435 6.337-21.566 6.336"/><path fill="#fd3968" d="M822.504 244.383c22.086 0 33.226-2.61 38.504-9.969L793.77 174.59c-13.68 4.273-15.832 14.246-15.832 33.71 0 28.25 5.082 36.083 44.566 36.083m-66.262-33.946c0-27.773 4.887-42.968 21.696-50.328-9.774-10.68-12.508-20.652-12.508-38.218 0-34.657 13.875-45.579 57.27-45.579 43.39 0 56.292 10.922 56.292 47.477v8.074H857.88v-5.699c0-21.363-6.059-26.113-34.594-26.113-29.71 0-36.16 4.273-36.16 23.265 0 10.918 2.344 16.141 10.945 23.739l68.02 60.058V167.47h21.11v42.969q0 8.19-.587 14.957l24.434 21.601-12.121 20.89-19.739-17.566c-8.796 12.817-25.8 17.805-57.468 17.805-53.942 0-65.477-14.246-65.477-57.687"/></svg>